<svg width="38" height="38" viewBox="0 0 38 38" fill="none" xmlns="http://www.w3.org/2000/svg">
<path d="M35.3618 32.6637C36.5518 31.0684 37.3685 29.2262 37.7515 27.2731C38.1345 25.32 38.0741 23.3058 37.5747 21.3791C37.0753 19.4525 36.1497 17.6626 34.8661 16.1415C33.5826 14.6204 31.9738 13.407 30.1587 12.5908C29.7633 10.3159 28.8546 8.16111 27.5017 6.29008C26.1488 4.41905 24.3872 2.88103 22.3509 1.79288C20.3145 0.704725 18.0569 0.0950777 15.7496 0.0102557C13.4423 -0.0745663 11.1461 0.367669 9.03529 1.30336C6.92453 2.23905 5.05479 3.64357 3.56816 5.41022C2.08153 7.17686 1.01712 9.25913 0.455795 11.4988C-0.105526 13.7385 -0.148984 16.0767 0.328723 18.3357C0.80643 20.5947 1.79273 22.7151 3.21269 24.5358L0.573161 27.1565C0.309668 27.4235 0.131175 27.7626 0.0602035 28.131C-0.0107678 28.4994 0.0289632 28.8806 0.174383 29.2264C0.316842 29.5732 0.558763 29.8701 0.869658 30.0796C1.18055 30.2891 1.54651 30.402 1.92141 30.4038H12.7264C13.8024 32.6724 15.4989 34.5899 17.6195 35.9342C19.7401 37.2785 22.198 37.9948 24.7087 38H36.1024C36.4773 37.9981 36.8432 37.8853 37.1541 37.6758C37.465 37.4663 37.7069 37.1694 37.8494 36.8226C37.9948 36.4768 38.0345 36.0956 37.9636 35.7272C37.8926 35.3588 37.7141 35.0197 37.4506 34.7526L35.3618 32.6637ZM11.4161 24.7067C11.4187 25.3426 11.4695 25.9775 11.568 26.6057H6.49786L7.16249 25.9601C7.34048 25.7835 7.48174 25.5735 7.57815 25.3421C7.67456 25.1106 7.72419 24.8624 7.72419 24.6117C7.72419 24.361 7.67456 24.1128 7.57815 23.8814C7.48174 23.65 7.34048 23.44 7.16249 23.2634C6.09824 22.2108 5.25453 20.9565 4.68067 19.574C4.10682 18.1915 3.81435 16.7084 3.82035 15.2115C3.82035 12.1895 5.02075 9.29134 7.15748 7.1545C9.2942 5.01766 12.1922 3.8172 15.214 3.8172C17.5719 3.80303 19.8749 4.52817 21.7994 5.8907C23.7239 7.25322 25.173 9.18461 25.943 11.4134C25.5253 11.4134 25.1265 11.4134 24.7087 11.4134C21.1833 11.4134 17.8023 12.8139 15.3094 15.3069C12.8166 17.7999 11.4161 21.1811 11.4161 24.7067ZM31.431 34.2019L31.5259 34.2969H24.7087C22.5123 34.2929 20.3851 33.5276 18.6897 32.1312C16.9942 30.7348 15.8353 28.7937 15.4103 26.6387C14.9854 24.4836 15.3207 22.2479 16.3592 20.3123C17.3977 18.3768 19.0751 16.8612 21.1056 16.0237C23.1361 15.1862 25.3942 15.0786 27.4951 15.7193C29.596 16.36 31.4098 17.7093 32.6276 19.5374C33.8453 21.3655 34.3916 23.5592 34.1734 25.7449C33.9552 27.9306 32.986 29.973 31.431 31.5243C31.0732 31.8749 30.8684 32.3527 30.8613 32.8536C30.8623 33.1048 30.9132 33.3534 31.011 33.5848C31.1088 33.8163 31.2515 34.026 31.431 34.2019Z" fill="#767474"/>
</svg>
