<svg width="36" height="34" viewBox="0 0 36 34" fill="none" xmlns="http://www.w3.org/2000/svg">
<path d="M34.776 3.8704L23.976 0.0949504H23.85C23.7662 0.0861189 23.6818 0.0861189 23.598 0.0949504H23.184H22.95H22.824L12.6 3.77601L2.37601 0.0949504C2.10531 0.00134107 1.81729 -0.0235131 1.53565 0.0224331C1.25401 0.0683794 0.986795 0.183813 0.756006 0.359232C0.523371 0.532934 0.333483 0.762191 0.202029 1.02807C0.0705743 1.29394 0.00132652 1.5888 6.00036e-06 1.88829V28.3164C-0.000968091 28.7122 0.11668 29.0982 0.336321 29.42C0.555963 29.7419 0.866488 29.9831 1.22401 30.1098L12.024 33.8852C12.3866 34.0092 12.7774 34.0092 13.14 33.8852L23.4 30.2985L33.624 33.9796C33.8151 34.0068 34.0089 34.0068 34.2 33.9796C34.5763 33.9852 34.9437 33.8589 35.244 33.6209C35.4766 33.4472 35.6665 33.218 35.798 32.9521C35.9294 32.6862 35.9987 32.3914 36 32.0919V5.66374C36.001 5.26799 35.8833 4.88193 35.6637 4.56012C35.444 4.23831 35.1335 3.99704 34.776 3.8704ZM10.8 29.4679L3.6 26.9573V4.51223L10.8 7.0229V29.4679ZM21.6 26.9573L14.4 29.4679V7.0229L21.6 4.51223V26.9573ZM32.4 29.4679L25.2 26.9573V4.51223L32.4 7.0229V29.4679Z" fill="#767474"/>
</svg>
