<svg width="28" height="18" viewBox="0 0 28 18" fill="none" xmlns="http://www.w3.org/2000/svg">
<path d="M22.3996 0C23.1677 0 23.892 0.15625 24.5725 0.46875C25.2531 0.78125 25.8461 1.20833 26.3517 1.75C26.8572 2.29167 27.2607 2.93229 27.5621 3.67188C27.8634 4.41146 28.0093 5.1875 27.9995 6C27.9995 6.83333 27.8537 7.60938 27.5621 8.32812C27.2704 9.04688 26.8718 9.68229 26.3662 10.2344C25.8607 10.7865 25.2628 11.2188 24.5725 11.5312C23.8823 11.8438 23.158 12 22.3996 12H20.8976C20.4698 12.8021 19.9594 13.5417 19.3664 14.2188C18.7733 14.8958 18.1171 15.4896 17.3976 16H21.4663C21.7191 16 21.9378 16.099 22.1226 16.2969C22.3073 16.4948 22.3996 16.7292 22.3996 17C22.3996 17.2708 22.3073 17.5052 22.1226 17.7031C21.9378 17.901 21.7191 18 21.4663 18H0.933318C0.680544 18 0.461798 17.901 0.277079 17.7031C0.0923596 17.5052 0 17.2708 0 17C0 16.7292 0.0923596 16.4948 0.277079 16.2969C0.461798 16.099 0.680544 16 0.933318 16H5.002C4.21451 15.4375 3.51453 14.7917 2.90204 14.0625C2.28955 13.3333 1.76455 12.5417 1.32706 11.6875C0.889569 10.8333 0.56388 9.92188 0.349994 8.95312C0.136109 7.98438 0.0194441 7 0 6V0H22.3996ZM11.1998 16C12.0554 16 12.8817 15.8802 13.6789 15.6406C14.4762 15.401 15.2199 15.0677 15.9102 14.6406C16.6004 14.2135 17.2275 13.6927 17.7914 13.0781C18.3553 12.4635 18.8414 11.7865 19.2497 11.0469C19.658 10.3073 19.974 9.51042 20.1976 8.65625C20.4212 7.80208 20.533 6.91667 20.533 6V2H1.86664V6C1.86664 6.91667 1.97844 7.80208 2.20205 8.65625C2.42565 9.51042 2.73676 10.3073 3.13537 11.0469C3.53397 11.7865 4.02007 12.4583 4.59368 13.0625C5.16728 13.6667 5.79921 14.1875 6.48948 14.625C7.17974 15.0625 7.92348 15.401 8.72069 15.6406C9.5179 15.8802 10.3443 16 11.1998 16ZM22.3996 10C22.9149 10 23.3961 9.89583 23.8434 9.6875C24.2906 9.47917 24.6892 9.19271 25.0392 8.82812C25.3892 8.46354 25.6565 8.04167 25.8412 7.5625C26.026 7.08333 26.1232 6.5625 26.1329 6C26.1329 5.44792 26.0357 4.93229 25.8412 4.45312C25.6468 3.97396 25.3794 3.54688 25.0392 3.17188C24.6989 2.79688 24.3052 2.51042 23.8579 2.3125C23.4107 2.11458 22.9246 2.01042 22.3996 2C22.3996 2.67708 22.4045 3.35417 22.4142 4.03125C22.4239 4.70833 22.4191 5.38021 22.3996 6.04688C22.3802 6.71354 22.3219 7.375 22.2246 8.03125C22.1274 8.6875 21.9719 9.34375 21.758 10H22.3996Z" fill="#626161"/>
</svg>
