<svg width="20" height="26" viewBox="0 0 20 26" fill="none" xmlns="http://www.w3.org/2000/svg">
<path d="M6.3375 7.42857L2.5 13.1312V23.5238H17.5V7.42857H6.3375ZM5 4.95238H18.75C19.0815 4.95238 19.3995 5.08282 19.6339 5.31501C19.8683 5.5472 20 5.86211 20 6.19048V24.7619C20 25.0903 19.8683 25.4052 19.6339 25.6374C19.3995 25.8696 19.0815 26 18.75 26H1.25C0.918479 26 0.600537 25.8696 0.366117 25.6374C0.131696 25.4052 0 25.0903 0 24.7619V12.381L5 4.95238ZM11.25 0H17.5C17.8315 0 18.1495 0.130442 18.3839 0.36263C18.6183 0.594818 18.75 0.909732 18.75 1.2381V3.71429H10V1.2381C10 0.909732 10.1317 0.594818 10.3661 0.36263C10.6005 0.130442 10.9185 0 11.25 0ZM5 13.619H7.5V21.0476H5V13.619Z" fill="#767474"/>
</svg>
