<svg width="50" height="50" viewBox="0 0 50 50" fill="none" xmlns="http://www.w3.org/2000/svg">
<path id="Login-Button" d="M25 0C20.0555 0 15.222 1.46622 11.1108 4.21326C6.99952 6.96029 3.79521 10.8648 1.90302 15.4329C0.0108321 20.0011 -0.484251 25.0277 0.480379 29.8772C1.44501 34.7268 3.82603 39.1813 7.32234 42.6777C10.8187 46.174 15.2732 48.555 20.1227 49.5196C24.9723 50.4843 29.9989 49.9892 34.5671 48.097C39.1352 46.2048 43.0397 43.0005 45.7867 38.8892C48.5338 34.778 50 29.9445 50 25C50 18.3696 47.3661 12.0107 42.6777 7.32233C37.9893 2.63392 31.6304 0 25 0ZM25.0938 27.625C24.8298 27.6271 24.568 27.5768 24.3236 27.4773C24.0791 27.3777 23.8568 27.2307 23.6694 27.0448C23.4821 26.8588 23.3333 26.6377 23.2319 26.394C23.1304 26.1503 23.0781 25.889 23.0781 25.625V10.3906C23.0781 9.85604 23.2905 9.34336 23.6685 8.96536C24.0465 8.58736 24.5592 8.375 25.0938 8.375C25.6283 8.375 26.141 8.58736 26.519 8.96536C26.897 9.34336 27.1094 9.85604 27.1094 10.3906V25.625C27.1094 25.889 27.0571 26.1503 26.9557 26.394C26.8542 26.6377 26.7055 26.8588 26.5181 27.0448C26.3307 27.2307 26.1084 27.3777 25.8639 27.4773C25.6195 27.5768 25.3577 27.6271 25.0938 27.625ZM25 40.2969C21.7091 40.3358 18.4918 39.322 15.8178 37.4033C13.1437 35.4847 11.1528 32.7616 10.1357 29.6316C9.11849 26.5016 9.12827 23.1284 10.1636 20.0043C11.1989 16.8802 13.2055 14.1687 15.8906 12.2656C16.3583 11.9323 16.9383 11.7962 17.5055 11.8868C18.0726 11.9775 18.5814 12.2875 18.9219 12.75C19.0881 12.9784 19.2075 13.2374 19.2731 13.5122C19.3388 13.7869 19.3494 14.072 19.3044 14.3509C19.2594 14.6297 19.1596 14.8969 19.0108 15.1371C18.862 15.3772 18.6672 15.5855 18.4375 15.75C16.893 16.8843 15.6648 18.3952 14.87 20.1388C14.0752 21.8824 13.7402 23.8006 13.897 25.7104C14.0539 27.6202 14.6973 29.458 15.7659 31.0486C16.8345 32.6392 18.2927 33.9295 20.0015 34.7967C21.7104 35.6638 23.6128 36.0787 25.5275 36.002C27.4422 35.9252 29.3053 35.3593 30.9392 34.3582C32.5732 33.3571 33.9234 31.9542 34.8613 30.2831C35.7992 28.6121 36.2934 26.7287 36.2969 24.8125C36.2916 23.0469 35.8633 21.3083 35.0477 19.7424C34.2321 18.1765 33.0531 16.8289 31.6094 15.8125C31.1648 15.4617 30.8774 14.949 30.8101 14.3867C30.7427 13.8244 30.9009 13.2584 31.25 12.8125C31.5952 12.3549 32.1061 12.0511 32.673 11.9663C33.2399 11.8816 33.8174 12.0227 34.2813 12.3594C36.9383 14.2843 38.913 17.0057 39.9188 20.1288C40.9245 23.2519 40.9091 26.6143 39.8747 29.728C38.8402 32.8417 36.8406 35.5449 34.166 37.4453C31.4913 39.3458 28.2807 40.3446 25 40.2969Z" fill="#DFC6B0"/>
</svg>
