<svg width="18" height="25" viewBox="0 0 18 25" fill="none" xmlns="http://www.w3.org/2000/svg">
<path d="M1 0C1.26522 0 1.51957 0.0940686 1.70711 0.261512C1.89464 0.428955 2 0.656057 2 0.892857V6.25C1.99967 6.80415 2.19186 7.34476 2.55006 7.79731C2.90826 8.24985 3.41484 8.59207 4 8.77679V0.892857C4 0.656057 4.10536 0.428955 4.29289 0.261512C4.48043 0.0940686 4.73478 0 5 0C5.26522 0 5.51957 0.0940686 5.70711 0.261512C5.89464 0.428955 6 0.656057 6 0.892857V8.77679C6.58516 8.59207 7.09174 8.24985 7.44994 7.79731C7.80814 7.34476 8.00033 6.80415 8 6.25V0.892857C8 0.656057 8.10536 0.428955 8.29289 0.261512C8.48043 0.0940686 8.73478 0 9 0C9.26522 0 9.51957 0.0940686 9.70711 0.261512C9.89464 0.428955 10 0.656057 10 0.892857V6.25C10.0002 7.27915 9.60222 8.27677 8.87331 9.07402C8.1444 9.87127 7.12936 10.4192 6 10.625V24.1071C6 24.3439 5.89464 24.571 5.70711 24.7385C5.51957 24.9059 5.26522 25 5 25C4.73478 25 4.48043 24.9059 4.29289 24.7385C4.10536 24.571 4 24.3439 4 24.1071V10.625C2.87064 10.4192 1.8556 9.87127 1.12669 9.07402C0.397783 8.27677 -0.000235151 7.27915 1.04228e-07 6.25V0.892857C1.04228e-07 0.656057 0.105357 0.428955 0.292893 0.261512C0.48043 0.0940686 0.734784 0 1 0ZM14.958 2.64107C15.276 2.35536 15.634 2.13571 16 1.99107V10.7143H14V4.46429C14 3.8625 14.348 3.18393 14.958 2.64107ZM16 12.5V24.1071C16 24.3439 16.1054 24.571 16.2929 24.7385C16.4804 24.9059 16.7348 25 17 25C17.2652 25 17.5196 24.9059 17.7071 24.7385C17.8946 24.571 18 24.3439 18 24.1071V0.892857C18 0.656057 17.8946 0.428955 17.7071 0.261512C17.5196 0.0940686 17.2652 0 17 0C15.674 0 14.434 0.582143 13.542 1.37679C12.652 2.17321 12 3.28036 12 4.46429V11.6071C12 11.8439 12.1054 12.071 12.2929 12.2385C12.4804 12.4059 12.7348 12.5 13 12.5H16Z" fill="#767474"/>
</svg>
