<svg width="21" height="21" viewBox="0 0 21 21" fill="none" xmlns="http://www.w3.org/2000/svg">
<path d="M20.9167 6.14587C20.9217 6.07999 20.9217 6.01383 20.9167 5.94795L18.8334 0.739616C18.752 0.533737 18.6072 0.359133 18.4199 0.241133C18.2326 0.123132 18.0125 0.067871 17.7917 0.0833662H3.20837C2.99975 0.0831642 2.79587 0.145611 2.62315 0.262617C2.45043 0.379623 2.31681 0.545798 2.23962 0.739616L0.156291 5.94795C0.151269 6.01383 0.151269 6.07999 0.156291 6.14587C0.121677 6.20385 0.0970298 6.26723 0.083374 6.33337C0.0949684 7.05341 0.292984 7.75816 0.658108 8.37887C1.02323 8.99958 1.543 9.51506 2.16671 9.87503V19.875C2.16671 20.1513 2.27645 20.4163 2.4718 20.6116C2.66715 20.807 2.93211 20.9167 3.20837 20.9167H17.7917C18.068 20.9167 18.3329 20.807 18.5283 20.6116C18.7236 20.4163 18.8334 20.1513 18.8334 19.875V9.9167C19.4631 9.55314 19.9867 9.0311 20.3522 8.40247C20.7177 7.77384 20.9123 7.06051 20.9167 6.33337C20.9265 6.27125 20.9265 6.20799 20.9167 6.14587ZM11.5417 18.8334H9.45837V14.6667H11.5417V18.8334ZM16.75 18.8334H13.625V13.625C13.625 13.3488 13.5153 13.0838 13.3199 12.8885C13.1246 12.6931 12.8596 12.5834 12.5834 12.5834H8.41671C8.14044 12.5834 7.87549 12.6931 7.68014 12.8885C7.48479 13.0838 7.37504 13.3488 7.37504 13.625V18.8334H4.25004V10.5C4.84324 10.4967 5.42888 10.3667 5.9678 10.1188C6.50672 9.87091 6.9865 9.51079 7.37504 9.06253C7.76605 9.50589 8.24692 9.86098 8.78572 10.1042C9.32451 10.3474 9.90889 10.4732 10.5 10.4732C11.0912 10.4732 11.6756 10.3474 12.2144 10.1042C12.7532 9.86098 13.234 9.50589 13.625 9.06253C14.0136 9.51079 14.4934 9.87091 15.0323 10.1188C15.5712 10.3667 16.1568 10.4967 16.75 10.5V18.8334ZM16.75 8.4167C16.1975 8.4167 15.6676 8.19721 15.2769 7.80651C14.8862 7.4158 14.6667 6.8859 14.6667 6.33337C14.6667 6.0571 14.557 5.79215 14.3616 5.5968C14.1663 5.40145 13.9013 5.2917 13.625 5.2917C13.3488 5.2917 13.0838 5.40145 12.8885 5.5968C12.6931 5.79215 12.5834 6.0571 12.5834 6.33337C12.5834 6.8859 12.3639 7.4158 11.9732 7.80651C11.5825 8.19721 11.0526 8.4167 10.5 8.4167C9.94751 8.4167 9.4176 8.19721 9.0269 7.80651C8.6362 7.4158 8.41671 6.8859 8.41671 6.33337C8.41671 6.0571 8.30696 5.79215 8.11161 5.5968C7.91626 5.40145 7.65131 5.2917 7.37504 5.2917C7.09877 5.2917 6.83382 5.40145 6.63847 5.5968C6.44312 5.79215 6.33337 6.0571 6.33337 6.33337C6.34363 6.60695 6.29991 6.87988 6.20469 7.13657C6.10947 7.39326 5.96462 7.62868 5.77842 7.82939C5.59222 8.0301 5.36831 8.19217 5.11948 8.30634C4.87064 8.42052 4.60175 8.48457 4.32817 8.49483C3.77563 8.51555 3.2375 8.31592 2.83214 7.93987C2.63143 7.75367 2.46936 7.52976 2.35519 7.28093C2.24101 7.03209 2.17697 6.7632 2.16671 6.48962L3.91671 2.1667H17.0834L18.8334 6.48962C18.7939 7.01463 18.5571 7.50523 18.1706 7.86275C17.7841 8.22026 17.2765 8.41818 16.75 8.4167Z" fill="#767474"/>
</svg>
