<svg width="20" height="19" viewBox="0 0 20 19" fill="none" xmlns="http://www.w3.org/2000/svg">
<path d="M18.1809 16.3318C18.7759 15.5342 19.1843 14.6131 19.3758 13.6365C19.5673 12.66 19.5371 11.6529 19.2874 10.6896C19.0376 9.72625 18.5748 8.8313 17.9331 8.07076C17.2913 7.31022 16.4869 6.70351 15.5793 6.29539C15.3817 5.15796 14.9273 4.08055 14.2509 3.14504C13.5744 2.20952 12.6936 1.44051 11.6754 0.896438C10.6572 0.352363 9.52845 0.0475389 8.37481 0.00512785C7.22116 -0.0372831 6.07303 0.183834 5.01765 0.651679C3.96226 1.11952 3.0274 1.82179 2.28408 2.70511C1.54077 3.58843 1.00856 4.62957 0.727898 5.74941C0.447237 6.86926 0.425508 8.03835 0.664362 9.16785C0.903215 10.2974 1.39637 11.3576 2.10635 12.2679L0.78658 13.5782C0.654834 13.7118 0.565587 13.8813 0.530102 14.0655C0.494616 14.2497 0.514482 14.4403 0.587192 14.6132C0.658421 14.7866 0.779381 14.935 0.934829 15.0398C1.09028 15.1446 1.27326 15.201 1.4607 15.2019H6.86319C7.40121 16.3362 8.24946 17.2949 9.30974 17.9671C10.37 18.6393 11.599 18.9974 12.8544 19H18.5512C18.7386 18.9991 18.9216 18.9427 19.0771 18.8379C19.2325 18.7331 19.3535 18.5847 19.4247 18.4113C19.4974 18.2384 19.5173 18.0478 19.4818 17.8636C19.4463 17.6794 19.3571 17.5098 19.2253 17.3763L18.1809 16.3318ZM6.20806 12.3533C6.20936 12.6713 6.23476 12.9887 6.28402 13.3029H3.74893L4.08125 12.98C4.17024 12.8918 4.24087 12.7867 4.28908 12.671C4.33728 12.5553 4.3621 12.4312 4.3621 12.3059C4.3621 12.1805 4.33728 12.0564 4.28908 11.9407C4.24087 11.825 4.17024 11.72 4.08125 11.6317C3.54912 11.1054 3.12726 10.4783 2.84034 9.787C2.55341 9.09573 2.40717 8.35419 2.41018 7.60573C2.41018 6.09476 3.01038 4.64567 4.07874 3.57725C5.1471 2.50883 6.59611 1.9086 8.107 1.9086C9.28595 1.90151 10.4375 2.26409 11.3997 2.94535C12.3619 3.62661 13.0865 4.59231 13.4715 5.70669C13.2626 5.70669 13.0632 5.70669 12.8544 5.70669C11.0917 5.70669 9.40114 6.40696 8.15472 7.65345C6.90829 8.89994 6.20806 10.5905 6.20806 12.3533ZM16.2155 17.101L16.263 17.1484H12.8544C11.7561 17.1465 10.6926 16.7638 9.84484 16.0656C8.9971 15.3674 8.41764 14.3969 8.20517 13.3193C7.9927 12.2418 8.16037 11.1239 8.6796 10.1562C9.19884 9.1884 10.0375 8.43059 11.0528 8.01184C12.068 7.5931 13.1971 7.53932 14.2475 7.85966C15.298 8.18001 16.2049 8.85466 16.8138 9.7687C17.4227 10.6827 17.6958 11.7796 17.5867 12.8724C17.4776 13.9653 16.993 14.9865 16.2155 15.7621C16.0366 15.9374 15.9342 16.1763 15.9306 16.4268C15.9312 16.5524 15.9566 16.6767 16.0055 16.7924C16.0544 16.9081 16.1258 17.013 16.2155 17.101Z" fill="#767474"/>
</svg>
