<svg width="18" height="17" viewBox="0 0 18 17" fill="none" xmlns="http://www.w3.org/2000/svg">
<path d="M17.388 1.9352L11.988 0.0474752H11.925C11.8831 0.0430594 11.8409 0.0430594 11.799 0.0474752H11.592H11.475H11.412L6.3 1.88801L1.188 0.0474752C1.05266 0.000670537 0.908646 -0.0117566 0.767824 0.0112166C0.627003 0.0341897 0.493397 0.0919063 0.378003 0.179616C0.261685 0.266467 0.166741 0.381096 0.101014 0.514033C0.0352872 0.64697 0.000663258 0.7944 3.00018e-06 0.944144V14.1582C-0.000484045 14.3561 0.05834 14.5491 0.168161 14.71C0.277981 14.8709 0.433244 14.9916 0.612003 15.0549L6.012 16.9426C6.1933 17.0046 6.3887 17.0046 6.57 16.9426L11.7 15.1493L16.812 16.9898C16.9076 17.0034 17.0044 17.0034 17.1 16.9898C17.2882 16.9926 17.4719 16.9295 17.622 16.8105C17.7383 16.7236 17.8333 16.609 17.899 16.476C17.9647 16.3431 17.9993 16.1957 18 16.0459V2.83187C18.0005 2.63399 17.9417 2.44096 17.8318 2.28006C17.722 2.11916 17.5668 1.99852 17.388 1.9352ZM5.4 14.734L1.8 13.4786V2.25611L5.4 3.51145V14.734ZM10.8 13.4786L7.2 14.734V3.51145L10.8 2.25611V13.4786ZM16.2 14.734L12.6 13.4786V2.25611L16.2 3.51145V14.734Z" fill="#767474"/>
</svg>
