<svg width="31" height="29" viewBox="0 0 31 29" fill="none" xmlns="http://www.w3.org/2000/svg">
<path d="M26.4792 3.5L26.2725 3.535L19.375 5.95L11.625 3.5L4.34 5.71667C4.06875 5.79833 3.875 6.00833 3.875 6.27667V23.9167C3.875 24.2433 4.15917 24.5 4.52083 24.5L4.7275 24.465L11.625 22.05L19.375 24.5L26.66 22.2833C26.9312 22.2017 27.125 21.9917 27.125 21.7233V4.08333C27.125 3.75667 26.8408 3.5 26.4792 3.5ZM12.9167 6.38167L18.0833 8.015V21.6183L12.9167 19.985V6.38167ZM6.45833 7.53667L10.3333 6.35833V20.0083L6.45833 21.3617V7.53667ZM24.5417 20.4633L20.6667 21.6417V8.00333L24.5417 6.65V20.4633Z" fill="#0019FF"/>
</svg>
